<svg id="Capa_1" enable-background="new 0 0 512 512" height="512" viewBox="0 0 512 512" width="512" xmlns="http://www.w3.org/2000/svg"><g><path d="m437.5 407.5v-333h-333v-74.5h-30v74.5h-74.5v30h74.5v333h333v74.5h30v-74.5h74.5v-30zm-30-97.496-30.187-50.735c-.069-48.638-39.659-88.187-88.313-88.187-16.9 0-33.331 4.793-47.516 13.861-6.791 4.341-12.915 9.563-18.238 15.496l-39.258-64.03-79.488 136.909v-168.818h303zm-167.503-82.244c10.674-16.613 28.869-26.678 49.003-26.678 31.791 0 57.705 25.576 58.287 57.23l-49.374 63.91zm-135.497 105.304 80.189-138.115 110.378 180.027 65.634-84.956 46.799 78.653v38.827h-303z"/></g></svg>